# xmcd
#
# Track frame offsets: 
#        150
#        18803
#        34461
#        49069
#        64793
#        85219
#        100879
#        125847
#        137165
#        154132
#        164831
#        182930
#
# Disc length: 2754 seconds
#
# Revision: 0
# Processed by: cddbd v1.4PL0 Copyright (c) Steve Scherf et al.
# Submitted via: ExactAudioCopy v0.90a11
#
DISCID=ac0ac00c
DTITLE=Krausberry - Rum's selection
DYEAR=1900
DGENRE=
TTITLE0=Vlakem na Kolin
TTITLE1=Siksa a Gadzo
TTITLE2=Druha lavice
TTITLE3=Do nebe
TTITLE4=Emil
TTITLE5=Korenova zelenina
TTITLE6=Horoskop
TTITLE7=Velkej kluk
TTITLE8=Tahne mi na ctyricet
TTITLE9=Disco boy
TTITLE10=Nas dum
TTITLE11=Stary casy
EXTD=
EXTT0=
EXTT1=
EXTT2=
EXTT3=
EXTT4=
EXTT5=
EXTT6=
EXTT7=
EXTT8=
EXTT9=
EXTT10=
EXTT11=
PLAYORDER=
